<?xml version="1.0" encoding="UTF-8"?>
<svg id="Layer_1" xmlns="http://www.w3.org/2000/svg" version="1.1" viewBox="0 0 172 69.5">
  <!-- Generator: Adobe Illustrator 29.2.1, SVG Export Plug-In . SVG Version: 2.1.0 Build 116)  -->
  <defs>
    <style>
      .st0 {
        fill: #d3d3d3;
      }
    </style>
  </defs>
  <path class="st0" d="M22.9,12.8c-2-.9-4.2-1.4-6.6-1.4C7.3,11.4,0,18.7,0,27.7s2.8,10.4,7,13.4l15.9-28.3h0ZM2.3,33.6s1.4-.9,1.4-.9c4.3-3,7.7-7,9.1-12.1.6-2.4.9-4.8.9-7.2v-.9h0c0,.1.4.6.3.5.2.3.4.6.6.9s.3.6.4.9c.1.3.2.6.3.9,1.3,4.3.6,9.6-2.4,13.1-.8,1-1.9,2-2.9,2.7-1.7,1.1-3.7,1.9-5.7,2.2-.7,0-1.5.2-2,0"/>
  <path class="st0" d="M25.5,14.2l-15.9,28.3c2.1.9,4.3,1.5,6.7,1.5,9,0,16.3-7.3,16.3-16.3s-2.8-10.5-7.1-13.5M19.8,34.5c-.8,2.5-1.1,5-1.2,7.6,0,.3,0,.7,0,1,0,0,0,0,0,0,0,0-.4-.6-.3-.4-.2-.3-.4-.6-.5-.9s-.3-.6-.4-1c-.1-.3-.2-.7-.3-1-1.2-4.6-.2-10.1,3-13.7.9-1,2-2,3.1-2.7,1.8-1.1,3.9-1.9,6-2.1.7,0,1.5-.1,2,0,0,0-1.4.9-1.4.9-4.6,2.9-8.3,7-9.9,12.4"/>
  <path class="st0" d="M65.3,40.8h-7.2v-2.7h0c-.6,1-2.4,3.5-7.5,3.5-7.6,0-12.6-5.9-12.6-13.5s6.1-13.4,12.5-13.4,6.6,2.2,7.4,3V0h7.5v40.8ZM51.8,34.6c4.7,0,6.4-3.9,6.4-6.5s-2.2-6.3-6.3-6.3-6.4,3.4-6.4,6.3,2.8,6.5,6.3,6.5"/>
  <polygon class="st0" points="85 40.8 77.8 40.8 68.8 15.7 76.6 15.7 81.4 31.4 81.5 31.4 86.3 15.7 94.1 15.7 85 40.8"/>
  <path class="st0" d="M97.5,15.7h7.1v2.7h0c.6-1.2,1.9-3.5,6.3-3.5v7.6c-3.5,0-5.9.8-5.9,4.6v13.8h-7.5V15.7h0Z"/>
  <path class="st0" d="M114.9,15.7h7.1v2.8h.1c1.5-1.9,4-3.6,7.8-3.6,8.9,0,12.3,7.8,12.3,13.7s-5.1,13.2-12.2,13.2-6.7-2.2-7.6-3.1v18.1h-7.5s0-41,0-41ZM134.7,28.3c0-3-2.2-6.4-6.3-6.4s-6.3,3.4-6.3,6.4,2.3,6.4,6.3,6.4,6.3-3.2,6.3-6.4"/>
  <path class="st0" d="M171.9,31.3c-1.4,5.7-6.4,10.4-13.2,10.4s-13.4-6-13.4-13.5,5.8-13.4,13.3-13.4,12,4.4,13.3,10.6h-7.6c-.8-1.7-2.3-3.5-5.4-3.5-3.6-.2-6,2.8-6,6.4s2.4,6.4,6,6.4,4.6-1.8,5.4-3.4h7.7Z"/>
  <path class="st0" d="M69.3.3h2.8c2,0,3,1.8,3,4.2s-1.4,4.2-3.4,4.2h-2.4V.3ZM70.7,7.4h1.1c1.1,0,1.9-.9,1.9-2.9s-.8-2.9-1.9-2.9h-1.1v5.8h0Z"/>
  <polygon class="st0" points="77.4 8.6 77.4 .3 81.6 .3 81.6 1.6 78.8 1.6 78.8 3.7 81.7 3.7 81.7 4.9 78.8 4.9 78.8 7.4 81.7 7.4 81.7 8.6 77.4 8.6"/>
  <polygon class="st0" points="84.1 8.6 84.1 .3 85.6 .3 85.6 7.4 88.2 7.4 88.2 8.6 84.1 8.6"/>
  <path class="st0" d="M92.1.3h1.2l2.6,8.3h-1.5l-.7-2.2h-2.1l-.7,2.2h-1.5s2.6-8.3,2.6-8.3ZM92.7,2.5h0l-.7,2.7h1.5l-.7-2.7h0Z"/>
  <polygon class="st0" points="101.9 .3 103.3 6.4 103.3 6.4 104.6 .3 106.1 .3 104 8.6 102.7 8.6 101.3 2.6 101.3 2.6 99.9 8.6 98.6 8.6 96.5 .3 98 .3 99.3 6.4 99.3 6.4 100.6 .3 101.9 .3"/>
  <path class="st0" d="M109.5.3h1.2l2.6,8.3h-1.5l-.7-2.2h-2.1l-.7,2.2h-1.5s2.6-8.3,2.6-8.3ZM110.1,2.5h0l-.7,2.7h1.5l-.7-2.7h0Z"/>
  <path class="st0" d="M115.1,8.6V.3h2.5c1.8,0,2.6,1.3,2.6,2.6s-.6,2.2-1.9,2.4l2.3,3.3h-1.7l-2.4-3.7h0v3.7h-1.4,0ZM116.5,4.2h.8c.9,0,1.4-.3,1.4-1.2s-.6-1.4-1.5-1.4h-.7v2.6Z"/>
  <polygon class="st0" points="122.5 8.6 122.5 .3 126.8 .3 126.8 1.6 123.9 1.6 123.9 3.7 126.8 3.7 126.8 4.9 123.9 4.9 123.9 7.4 126.9 7.4 126.9 8.6 122.5 8.6"/>
  <polygon class="st0" points="137.6 .3 139.1 .3 136.6 8.6 135.3 8.6 132.9 .3 134.4 .3 136 6.4 136 6.4 137.6 .3"/>
  <path class="st0" d="M142.3.3h1.2l2.6,8.3h-1.5l-.7-2.2h-2.1l-.7,2.2h-1.5s2.6-8.3,2.6-8.3ZM142.9,2.5h0l-.7,2.7h1.5l-.7-2.7h0Z"/>
  <polygon class="st0" points="148 8.6 148 .3 149.4 .3 149.4 7.4 152 7.4 152 8.6 148 8.6"/>
  <polygon class="st0" points="154.1 8.6 154.1 .3 155.5 .3 155.5 7.4 158.2 7.4 158.2 8.6 154.1 8.6"/>
  <polygon class="st0" points="160.2 8.6 160.2 .3 164.5 .3 164.5 1.6 161.7 1.6 161.7 3.7 164.6 3.7 164.6 4.9 161.7 4.9 161.7 7.4 164.6 7.4 164.6 8.6 160.2 8.6"/>
  <polygon class="st0" points="168.4 5.3 166.3 .3 167.8 .3 169.1 3.8 170.5 .3 172 .3 169.8 5.3 169.8 8.6 168.4 8.6 168.4 5.3"/>
  <path class="st0" d="M40.2,69.3v-8.6h2.2c2.1,0,3.1,1.2,3.1,2.7s-1,2.7-2.6,2.7h-1.2v3.2h-1.5,0ZM41.6,64.9h1.1c1,0,1.3-.6,1.3-1.4s-.4-1.4-1.3-1.4h-1.1v2.8Z"/>
  <polygon class="st0" points="47.5 69.3 47.5 60.8 48.9 60.8 48.9 68.1 51.6 68.1 51.6 69.3 47.5 69.3"/>
  <path class="st0" d="M55.3,60.8h1.3l2.7,8.6h-1.5l-.7-2.3h-2.2l-.7,2.3h-1.5l2.6-8.6h0ZM56,63h0l-.7,2.8h1.5l-.8-2.8h0Z"/>
  <polygon class="st0" points="60.9 69.3 60.9 60.8 62.5 60.8 65.2 66.3 65.2 66.3 65.2 60.8 66.5 60.8 66.5 69.3 65.2 69.3 62.2 63.3 62.2 63.3 62.2 69.3 60.9 69.3"/>
  <polygon class="st0" points="68.9 69.3 68.9 60.8 70.5 60.8 73.2 66.3 73.2 66.3 73.2 60.8 74.5 60.8 74.5 69.3 73.3 69.3 70.3 63.3 70.2 63.3 70.2 69.3 68.9 69.3"/>
  <rect class="st0" x="77.1" y="60.8" width="1.5" height="8.6"/>
  <polygon class="st0" points="81.1 69.3 81.1 60.8 82.6 60.8 85.3 66.3 85.3 66.3 85.3 60.8 86.7 60.8 86.7 69.3 85.4 69.3 82.4 63.3 82.3 63.3 82.3 69.3 81.1 69.3"/>
  <path class="st0" d="M93.4,63.7c-.2-1.2-.7-1.7-1.5-1.7s-1.7.9-1.7,3.1.7,3.1,1.8,3.1,1.5-.8,1.5-2.1h-2.1v-1.3h3.6v1.1c0,2.1-.9,3.6-3,3.6s-3.3-1.4-3.3-4.4,1.2-4.4,3.3-4.4,2.8,1.3,2.9,3h-1.5,0Z"/>
  <path class="st0" d="M105.5,64.1c0-1.5-.5-2.1-1.5-2.1s-1.8.8-1.8,3.1.7,3.1,1.7,3.1,1.3-.4,1.6-2h1.5c0,1.9-1,3.3-3,3.3s-3.2-1.2-3.2-4.4,1.4-4.4,3.2-4.4,3,1.6,3,3.4h-1.5,0Z"/>
  <path class="st0" d="M115.2,65.1c0,2.8-1.3,4.4-3.2,4.4s-3.2-1.7-3.2-4.4,1.3-4.4,3.2-4.4,3.2,1.7,3.2,4.4M112,62c-.9,0-1.7.9-1.7,3.1s.8,3.1,1.7,3.1,1.7-.9,1.7-3.1-.8-3.1-1.7-3.1"/>
  <polygon class="st0" points="117.2 60.8 119.3 60.8 120.7 67 120.7 67 122.1 60.8 124.2 60.8 124.2 69.3 122.8 69.3 122.8 62.5 122.8 62.5 121.2 69.3 120.2 69.3 118.6 62.5 118.6 62.5 118.6 69.3 117.2 69.3 117.2 60.8"/>
  <polygon class="st0" points="126.5 60.8 128.6 60.8 130 67 130 67 131.5 60.8 133.5 60.8 133.5 69.3 132.1 69.3 132.1 62.5 132.1 62.5 130.5 69.3 129.6 69.3 127.9 62.5 127.9 62.5 127.9 69.3 126.5 69.3 126.5 60.8"/>
  <rect class="st0" x="136" y="60.8" width="1.5" height="8.6"/>
  <path class="st0" d="M140.9,66.7c0,.8.3,1.5,1.2,1.5s1.2-.5,1.2-1.2c0-2-3.6-.7-3.6-4s1.1-2.3,2.4-2.3,2.3,1.1,2.4,2.5h-1.4c0-.7-.4-1.2-1.1-1.2s-1,.5-1,1.1c0,1.8,3.6.6,3.6,3.8s-1,2.6-2.6,2.6-2.6-1.2-2.6-2.8h1.4Z"/>
  <path class="st0" d="M147.6,66.7c0,.8.3,1.5,1.2,1.5s1.2-.5,1.2-1.2c0-2-3.6-.7-3.6-4s1.1-2.3,2.4-2.3,2.3,1.1,2.4,2.5h-1.4c0-.7-.4-1.2-1.1-1.2s-1,.5-1,1.1c0,1.8,3.6.6,3.6,3.8s-1,2.6-2.6,2.6-2.6-1.2-2.6-2.8h1.4Z"/>
  <rect class="st0" x="153.5" y="60.8" width="1.5" height="8.6"/>
  <path class="st0" d="M163.5,65.1c0,2.8-1.3,4.4-3.2,4.4s-3.2-1.7-3.2-4.4,1.3-4.4,3.2-4.4,3.2,1.7,3.2,4.4M160.3,62c-.9,0-1.7.9-1.7,3.1s.8,3.1,1.7,3.1,1.7-.9,1.7-3.1-.8-3.1-1.7-3.1"/>
  <polygon class="st0" points="165.5 69.3 165.5 60.8 167.1 60.8 169.8 66.3 169.8 66.3 169.8 60.8 171.1 60.8 171.1 69.3 169.9 69.3 166.9 63.3 166.8 63.3 166.8 69.3 165.5 69.3"/>
  <path class="st0" d="M40,56.2v-8.6h2.6c1.9,0,2.7,1.3,2.7,2.7s-.6,2.3-2,2.4l2.4,3.4h-1.7l-2.4-3.8h0v3.8h-1.5,0ZM41.5,51.6h.8c.9,0,1.5-.3,1.5-1.2s-.7-1.4-1.5-1.4h-.8v2.7h0Z"/>
  <polygon class="st0" points="48.7 56.2 48.7 47.6 53.1 47.6 53.1 48.9 50.2 48.9 50.2 51.1 53.2 51.1 53.2 52.4 50.2 52.4 50.2 54.9 53.2 54.9 53.2 56.2 48.7 56.2"/>
  <path class="st0" d="M61.1,50.5c-.2-1.2-.7-1.7-1.5-1.7s-1.7.9-1.7,3.1.7,3.1,1.8,3.1,1.5-.8,1.5-2.1h-2.1v-1.3h3.6v1.1c0,2.1-.9,3.5-3,3.5s-3.3-1.4-3.3-4.4,1.2-4.4,3.3-4.4,2.8,1.3,2.9,3h-1.5,0Z"/>
  <rect class="st0" x="66.3" y="47.6" width="1.5" height="8.6"/>
  <path class="st0" d="M77.5,51.9c0,2.8-1.3,4.4-3.2,4.4s-3.2-1.7-3.2-4.4,1.3-4.4,3.2-4.4,3.2,1.7,3.2,4.4M74.4,48.8c-.9,0-1.7.9-1.7,3.1s.8,3.1,1.7,3.1,1.7-.9,1.7-3.1-.8-3.1-1.7-3.1"/>
  <polygon class="st0" points="80.9 56.2 80.9 47.6 82.5 47.6 85.2 53.2 85.2 53.2 85.2 47.6 86.5 47.6 86.5 56.2 85.2 56.2 82.2 50.2 82.2 50.2 82.2 56.2 80.9 56.2"/>
  <path class="st0" d="M92.1,47.6h1.3l2.7,8.6h-1.5l-.7-2.3h-2.2l-.7,2.3h-1.5l2.6-8.6h0ZM92.7,49.8h0l-.7,2.8h1.5l-.8-2.8Z"/>
  <polygon class="st0" points="98.9 56.2 98.9 47.6 100.4 47.6 100.4 54.9 103.1 54.9 103.1 56.2 98.9 56.2"/>
</svg>