<?xml version="1.0" encoding="UTF-8"?><svg id="Layer_1" xmlns="http://www.w3.org/2000/svg" viewBox="0 0 135 44.54"><defs><style>.cls-1{fill:#06688e;}</style></defs><g id="DVRPC_Acronym_Black"><path class="cls-1" d="M17.98,10.03c-1.58-.7-3.33-1.09-5.17-1.09C5.73,8.94,0,14.67,0,21.74c0,4.35,2.18,8.2,5.5,10.51l12.48-22.22ZM1.84,26.39s1.06-.68,1.08-.68c3.4-2.33,6.06-5.47,7.15-9.52.5-1.85.69-3.77.7-5.69v-.74s.04.04.05.05c.03.03.31.42.22.31.16.22.31.45.44.68.13.23.25.46.34.71.1.25.19.49.27.74,1.05,3.39.45,7.57-1.87,10.31-.65.76-1.46,1.56-2.31,2.11-1.37.88-2.9,1.5-4.51,1.7-.53.07-1.17.13-1.56.03"/><path class="cls-1" d="M20.01,11.16l-12.5,22.24c1.62.74,3.41,1.15,5.3,1.15,7.08,0,12.81-5.74,12.81-12.81,0-4.4-2.22-8.28-5.6-10.59M15.53,27.11c-.59,1.93-.86,3.94-.93,5.95-.01.26-.02.52-.03.78,0,0-.05-.04-.05-.05-.03-.04-.3-.45-.22-.33-.16-.23-.3-.48-.43-.73-.13-.25-.24-.5-.33-.76-.1-.25-.17-.52-.24-.79-.96-3.6-.19-7.97,2.33-10.76.7-.78,1.57-1.59,2.47-2.13,1.45-.88,3.06-1.47,4.73-1.63.55-.06,1.22-.08,1.61.03,0,0-1.13.67-1.14.68-3.61,2.31-6.48,5.52-7.77,9.73"/><path class="cls-1" d="M51.31,32.08h-5.62v-2.14h-.07c-.5.82-1.92,2.78-5.91,2.78-5.98,0-9.89-4.63-9.89-10.57,0-6.69,4.76-10.49,9.78-10.49,3.49,0,5.16,1.71,5.8,2.35V0h5.9v32.08ZM40.68,27.21c3.7,0,5.05-3.02,5.05-5.09,0-2.39-1.71-4.95-4.98-4.95s-5.02,2.67-5.02,4.95c0,3.06,2.17,5.09,4.95,5.09"/><polygon class="cls-1" points="66.78 32.08 61.13 32.08 54.05 12.34 60.17 12.34 63.94 24.65 64.01 24.65 67.78 12.34 73.9 12.34 66.78 32.08"/><path class="cls-1" d="M76.6,12.34h5.55v2.1h.07c.5-.96,1.53-2.78,4.95-2.78v5.94c-2.74.07-4.66.64-4.66,3.63v10.85h-5.91V12.34Z"/><path class="cls-1" d="M90.26,12.34h5.55v2.17h.11c1.18-1.49,3.13-2.85,6.15-2.85,7.01,0,9.64,6.15,9.64,10.74,0,5.69-3.98,10.35-9.6,10.35-3.56,0-5.23-1.71-5.94-2.46v14.24h-5.91V12.34ZM105.8,22.23c0-2.35-1.71-5.05-4.95-5.05s-4.94,2.7-4.94,5.05c0,2.49,1.85,5.01,4.94,5.01s4.95-2.52,4.95-5.01"/><path class="cls-1" d="M135,24.58c-1.07,4.48-5.02,8.15-10.35,8.15-5.97,0-10.56-4.7-10.56-10.56s4.52-10.49,10.42-10.49c5.23,0,9.46,3.45,10.46,8.29h-5.97c-.64-1.35-1.82-2.77-4.27-2.77-2.81-.15-4.7,2.17-4.7,5.01s1.89,5.02,4.7,5.02c2.45,0,3.63-1.42,4.27-2.63h6.01Z"/></g></svg>