<?xml version="1.0" encoding="UTF-8"?><svg id="Layer_1" xmlns="http://www.w3.org/2000/svg" viewBox="0 0 12.54 12.5"><defs><style>.cls-1{fill:#d3d3d3;}</style></defs><path class="cls-1" d="M11.09,0H1.45C.65,0,0,.64,0,1.43v9.63c0,.79.65,1.44,1.45,1.44h5.46v-4.71c-.52-.01-1.08.03-1.57-.01.02-.59-.02-1.22.02-1.77h1.55c-.02-1.23-.06-2.24.45-2.91.34-.45.9-.77,1.62-.82.57-.04,1.13-.02,1.66.03v1.6c-.75,0-1.38-.09-1.69.31-.3.37-.15,1.43-.18,1.79.59.01,1.23-.02,1.79.02-.07.59-.17,1.22-.24,1.77h-1.55v4.71h2.32c.8,0,1.45-.64,1.45-1.44V1.43c0-.79-.65-1.43-1.45-1.43"/></svg>