<?xml version="1.0" encoding="UTF-8"?>
<svg id="Layer_1" xmlns="http://www.w3.org/2000/svg" version="1.1" viewBox="0 0 12.9 13">
  <!-- Generator: Adobe Illustrator 29.2.1, SVG Export Plug-In . SVG Version: 2.1.0 Build 116)  -->
  <defs>
    <style>
      .st0 {
        fill: #d3d3d3;
        fill-rule: evenodd;
      }
    </style>
  </defs>
  <path class="st0" d="M12.9,6.5c0,.9,0,1.9,0,2.8,0,1.4-.6,2.6-2,3.2-.5.2-1.1.4-1.7.4-1.8,0-3.6,0-5.3,0-2.2,0-3.7-1.5-3.7-3.6C0,7.4,0,5.5,0,3.6.1,1.5,1.6,0,3.7,0c1.8,0,3.7,0,5.5,0,2.1,0,3.6,1.5,3.7,3.6,0,.9,0,1.9,0,2.8h0ZM1.2,6.5h0c0,1,0,1.9,0,2.9,0,1.4.9,2.3,2.3,2.3,1.9,0,3.9,0,5.8,0,1.4,0,2.2-.9,2.2-2.3,0-2,0-4,0-5.9,0-1.3-.9-2.2-2.2-2.2-2,0-3.9,0-5.9,0-1.3,0-2.2.9-2.2,2.3,0,1,0,2,0,3"/>
  <path class="st0" d="M9.7,6.5c0,1.8-1.5,3.3-3.3,3.3-1.8,0-3.3-1.5-3.3-3.3,0-1.8,1.5-3.3,3.3-3.3s3.3,1.5,3.3,3.3M6.4,4.3c-1.2,0-2.2,1-2.1,2.2,0,1.2,1,2.1,2.2,2.1,1.2,0,2.2-1,2.1-2.2,0-1.2-1-2.1-2.2-2.1"/>
  <path class="st0" d="M9.9,3.8c-.4,0-.8-.4-.8-.8,0-.4.4-.8.8-.8.4,0,.8.4.8.8s-.4.8-.8.8"/>
</svg>