<?xml version="1.0" encoding="UTF-8"?><svg id="Layer_1" xmlns="http://www.w3.org/2000/svg" viewBox="0 0 12.38 12.34"><defs><style>.cls-1{fill:#d3d3d3;}</style></defs><path class="cls-1" d="M10.94,0H1.43C.64,0,0,.64,0,1.42v9.5c0,.78.64,1.42,1.43,1.42h9.51c.79,0,1.44-.63,1.44-1.42V1.42c0-.78-.64-1.42-1.44-1.42M4.02,10.16h-1.76v-5.59s0-.04.01-.04h1.75v5.63ZM3.68,3.64c-.68.42-1.57-.07-1.57-.88,0-.53.41-.98.96-1,.56-.03,1.02.36,1.07.89.04.45-.21.83-.47.99M10.56,10.16h-1.77v-1.89c0-.91.12-1.93-.44-2.24-.5-.28-1.13,0-1.32.36-.24.43-.17,1.1-.17,1.8v1.96h-1.77v-5.63h1.69v.76c.32-.47.8-.85,1.56-.9.72-.05,1.3.17,1.64.52.96.99.43,3.45.58,5.25"/></svg>