<?xml version="1.0" encoding="UTF-8"?>
<svg id="Layer_1" xmlns="http://www.w3.org/2000/svg" version="1.1" viewBox="0 0 145 45.5">
  <!-- Generator: Adobe Illustrator 29.2.1, SVG Export Plug-In . SVG Version: 2.1.0 Build 116)  -->
  <defs>
    <style>
      .st0 {
        fill: #141414;
      }

      .st1 {
        fill: #71bc86;
      }

      .st2 {
        fill: #fdc50a;
      }

      .st3 {
        fill: #ef7965;
      }
    </style>
  </defs>
  <path class="st3" d="M38.2,22.7c0-9.5-6.4-16.3-15.3-16.3S7.5,13.2,7.5,22.7s6.4,16.3,15.4,16.3,15.3-6.8,15.3-16.3Z"/>
  <path class="st0" d="M0,22.7C0,9.5,9.7,0,22.9,0s22.8,9.5,22.8,22.7-9.7,22.7-22.8,22.7S0,35.9,0,22.7ZM39.7,22.7c0-10.5-7-17.9-16.9-17.9S5.9,12.3,5.9,22.7s7,17.9,16.9,17.9,16.9-7.5,16.9-17.9Z"/>
  <path class="st0" d="M31.8,32.7h-4.4l-5.5-7.9h-2.5v7.9h-4V12.8h7.8c4.7,0,6.7,2.8,6.7,6s-1.4,4.8-4,5.5l5.9,8.3h0ZM19.4,21.9h3.1c2.5,0,3.4-1.3,3.4-3.1s-.9-3.1-3.4-3.1h-3.1v6.2Z"/>
  <path class="st2" d="M87.8,22.7c0-9.5-6.4-16.3-15.3-16.3s-15.4,6.8-15.4,16.3,6.4,16.3,15.4,16.3,15.3-6.8,15.3-16.3Z"/>
  <path class="st0" d="M49.7,22.7c0-13.2,9.7-22.7,22.9-22.7s22.8,9.5,22.8,22.7-9.7,22.7-22.8,22.7-22.9-9.5-22.9-22.7ZM89.4,22.7c0-10.5-7-17.9-16.8-17.9s-16.9,7.5-16.9,17.9,7,17.9,16.9,17.9,16.8-7.5,16.8-17.9Z"/>
  <path class="st0" d="M74,34.5h-3.1l-8.4-19.9h4.1l5.9,14.3,5.9-14.3h4l-8.4,19.9h0Z"/>
  <path class="st1" d="M137.5,22.7c0-9.5-6.4-16.3-15.3-16.3s-15.4,6.8-15.4,16.3,6.4,16.3,15.4,16.3,15.3-6.8,15.3-16.3Z"/>
  <path class="st0" d="M99.3,22.7c0-13.2,9.7-22.7,22.9-22.7s22.8,9.5,22.8,22.7-9.7,22.7-22.8,22.7-22.9-9.5-22.9-22.7ZM139.1,22.7c0-10.5-7-17.9-16.8-17.9s-16.9,7.5-16.9,17.9,7,17.9,16.9,17.9,16.8-7.5,16.8-17.9Z"/>
  <path class="st0" d="M129.6,14.7l-9.7,14.8h9.6v3.1h-14.7v-2l9.7-14.8h-9.5v-3.1h14.6v1.9h0Z"/>
</svg>