<?xml version="1.0" encoding="UTF-8"?><svg id="Layer_1" xmlns="http://www.w3.org/2000/svg" viewBox="0 0 14 9.92"><defs><style>.cls-1{fill:#d3d3d3;}</style></defs><path class="cls-1" d="M13.79,1.81c-.27-1.07-.77-1.48-1.69-1.63-.53-.08-3.08-.18-5.1-.18h0C4.98,0,2.43.1,1.9.18.98.33.48.74.21,1.81c-.09.36-.21,2.32-.21,3.08v.16c0,.75.12,2.72.21,3.08.27,1.07.77,1.48,1.69,1.63.53.08,3.08.18,5.1.18s4.57-.1,5.1-.18c.92-.15,1.42-.56,1.69-1.63.09-.36.21-2.32.21-3.08v-.16c0-.75-.12-2.72-.21-3.08M5.55,6.93v-3.98l3.72,1.94-3.72,2.04Z"/></svg>